Patient4_TMGait_0pt2_02_right_07_GRF.mot
version=1
nRows=77
nColumns=19
inDegrees=no
endheader
time	F1x	F1y	F1z	M1x	M1y	M1z	F2x	F2y	F2z	M2x	M2y	M2z	EC1x	EC1y	EC1z	EC2x	EC2y	EC2z
14.49	-3.6544	676.9408	41.3472	-239.6505	-44.5554	698.0002	5.0843	87.7173	-7.3889	32.6851	4.6914	78.9109	-0.0592	0.0182	-0.0073	-0.0462	0.0165	0.9585
14.5136	-4.2023	708.3272	42.7878	-250.9042	-45.6632	729.6784	4.5908	75.2572	-6.4826	27.8798	4.2125	68.0713	-0.0592	0.0182	-0.0073	-0.0462	0.0165	0.9585
14.5373	-4.9533	743.6836	44.4825	-263.5312	-47.0177	765.047	3.6416	61.3957	-5.406	22.611	3.7029	55.8859	-0.0592	0.0182	-0.0073	-0.0462	0.0165	0.9585
14.5609	-5.8612	779.599	46.3036	-276.3063	-48.4967	800.6168	2.4303	47.4177	-4.2456	17.363	3.1651	43.4849	-0.0592	0.0182	-0.0073	-0.0462	0.0165	0.9585
14.5846	-6.8442	812.4836	48.0952	-287.945	-49.9324	832.7505	1.2188	34.4716	-3.1067	12.5536	2.6041	31.9118	-0.0592	0.0182	-0.0073	-0.0462	0.0165	0.9585
14.6082	-7.7718	839.2737	49.6866	-297.3632	-51.1249	858.3523	0.25151	23.3739	-2.0876	8.4686	2.033	21.9295	-0.0592	0.0182	-0.0073	-0.0462	0.0165	0.9585
14.6319	-8.4635	857.8491	50.9184	-303.829	-51.8664	875.2752	-0.33112	14.5643	-1.2564	5.253	1.4745	13.962	-0.0592	0.0182	-0.0073	-0.0462	0.0165	0.9585
14.6555	-8.7098	867.2118	51.6654	-307.0236	-51.9732	882.4955	-0.5648	8.1362	-0.64066	2.927	0.97457	8.1163	-0.0592	0.0182	-0.0073	-0.0462	0.0165	0.9585
14.6791	-8.3034	867.4923	51.8513	-307.0356	-51.3125	880.1236	-0.57206	3.8544	-0.22622	1.3944	0.56936	4.1932	-0.0592	0.0182	-0.0073	-0.0462	0.0165	0.9585
14.7028	-7.0767	859.8317	51.4597	-304.305	-49.8272	869.2949	-0.45153	1.2662	0.026311	0.48323	0.26134	1.7835	-0.0592	0.0182	-0.0073	-0.0462	0.0165	0.9585
14.7264	-4.9578	846.1176	50.5304	-299.5203	-47.5509	851.9263	-0.27162	-0.14722	0.16746	5.6139e-05	0.031153	0.41157	-0.0592	0.0182	-0.0073	-0.0462	0.0165	0.9585
14.7501	-1.9903	828.6405	49.1481	-293.4935	-44.5999	830.3875	-0.075504	-0.87306	0.24162	-0.23477	-0.14702	-0.37006	-0.0592	0.0182	-0.0073	-0.0462	0.0165	0.9585
14.7737	1.6758	809.7306	47.4304	-287.0321	-41.1585	807.1301	0.11118	-1.311	0.28116	-0.36852	-0.29214	-0.92837	-0.0592	0.0182	-0.0073	-0.0462	0.0165	0.9585
14.7974	5.8142	791.4338	45.5138	-280.8287	-37.4496	784.3452	0.27246	-1.7465	0.30499	-0.50658	-0.40935	-1.524	-0.0592	0.0182	-0.0073	-0.0462	0.0165	0.9585
14.821	10.1676	775.3138	43.5412	-275.3985	-33.7045	763.7435	0.398	-2.3357	0.31783	-0.70748	-0.49838	-2.2944	-0.0592	0.0182	-0.0073	-0.0462	0.0165	0.9585
14.8446	14.4776	762.3445	41.655	-271.0474	-30.1479	746.4375	0.47683	-3.0908	0.31349	-0.97972	-0.54867	-3.2268	-0.0592	0.0182	-0.0073	-0.0462	0.0165	0.9585
14.8683	18.5095	752.8619	39.9974	-267.8599	-26.9899	732.882	0.49303	-3.859	0.27084	-1.2727	-0.52749	-4.1298	-0.0592	0.0182	-0.0073	-0.0462	0.0165	0.9585
14.8919	22.0983	746.6008	38.7025	-265.7151	-24.4015	722.8951	0.41815	-4.2896	0.15172	-1.4654	-0.37785	-4.6011	-0.0592	0.0182	-0.0073	-0.0462	0.0165	0.9585
14.9156	25.1566	742.7724	37.8909	-264.3141	-22.5099	715.7442	0.21291	-3.8046	-0.097767	-1.3552	-0.021856	-3.9901	-0.0592	0.0182	-0.0073	-0.0462	0.0165	0.9585
14.9392	27.664	740.2267	37.643	-263.2389	-21.3786	710.3146	-0.16957	-1.5914	-0.5409	-0.65324	0.63415	-1.3866	-0.0592	0.0182	-0.0073	-0.0462	0.0165	0.9585
14.9629	29.6501	737.6588	37.9738	-262.0278	-20.9936	705.3206	-0.77198	3.3729	-1.2392	1.0079	1.6834	4.3453	-0.0592	0.0182	-0.0073	-0.0462	0.0165	0.9585
14.9865	31.174	733.774	38.8432	-260.2307	-21.2794	699.4704	-1.6185	12.2372	-2.2332	4.0472	3.1897	14.4754	-0.0592	0.0182	-0.0073	-0.0462	0.0165	0.9585
15.0101	32.2944	727.3652	40.1707	-257.4336	-22.1244	691.5595	-2.6931	26.0868	-3.5131	8.8702	5.1454	30.1933	-0.0592	0.0182	-0.0073	-0.0462	0.0165	0.9585
15.0338	33.0297	717.3765	41.8247	-253.2798	-23.3876	680.5543	-3.9556	45.6567	-4.989	15.7695	7.4387	52.2718	-0.0592	0.0182	-0.0073	-0.0462	0.0165	0.9585
15.0574	33.3627	703.0266	43.6083	-247.5176	-24.8902	665.7085	-5.5563	71.1577	-6.5996	24.8489	10.0475	80.8806	-0.0592	0.0182	-0.0073	-0.0462	0.0165	0.9585
15.0811	33.259	683.8608	45.2742	-240.0165	-26.424	646.5984	-7.7453	102.045	-8.5274	35.9194	13.2467	115.3593	-0.0592	0.0182	-0.0073	-0.0462	0.0165	0.9585
15.1047	32.6865	659.7759	46.5636	-230.7725	-27.7776	623.1313	-10.4955	136.7635	-10.9989	48.4105	17.2469	153.932	-0.0592	0.0182	-0.0073	-0.0462	0.0165	0.9585
15.1284	31.6728	631.2006	47.256	-219.9717	-28.7554	595.695	-13.5472	172.8918	-14.0985	61.4341	22.0165	193.893	-0.0592	0.0182	-0.0073	-0.0462	0.0165	0.9585
15.152	30.3509	599.2605	47.2333	-208.045	-29.215	565.2949	-16.6095	207.9282	-17.5674	74.0862	27.1496	232.5074	-0.0592	0.0182	-0.0073	-0.0462	0.0165	0.9585
15.1756	28.9316	565.6739	46.5092	-195.6271	-29.1009	533.4477	-19.4558	240.3075	-20.8663	85.8166	31.9798	268.1017	-0.0592	0.0182	-0.0073	-0.0462	0.0165	0.9585
15.1993	27.6202	532.3022	45.1996	-183.3933	-28.447	501.7953	-21.9472	269.5743	-23.5634	96.4678	35.9982	300.2183	-0.0592	0.0182	-0.0073	-0.0462	0.0165	0.9585
15.2229	26.5385	500.6093	43.4824	-171.8623	-27.3678	471.6317	-24.0021	295.9612	-25.5494	106.1094	39.0602	329.1363	-0.0592	0.0182	-0.0073	-0.0462	0.0165	0.9585
15.2466	25.6987	471.3505	41.56	-161.2887	-26.038	443.629	-25.5848	319.9318	-26.9228	114.8794	41.2618	355.3685	-0.0592	0.0182	-0.0073	-0.0462	0.0165	0.9585
15.2702	25.0311	444.6345	39.6088	-151.6937	-24.6408	417.8937	-26.7169	341.9078	-27.8505	122.9	42.7929	379.377	-0.0592	0.0182	-0.0073	-0.0462	0.0165	0.9585
15.2939	24.4347	420.1674	37.7435	-142.9615	-23.3143	394.1924	-27.4668	362.2134	-28.495	130.2666	43.8541	401.5114	-0.0592	0.0182	-0.0073	-0.0462	0.0165	0.9585
15.3175	23.8234	397.4704	36.0071	-134.9183	-22.1254	372.1341	-27.899	381.1627	-28.9546	137.0848	44.578	422.0902	-0.0592	0.0182	-0.0073	-0.0462	0.0165	0.9585
15.3411	23.1555	376.0087	34.3838	-127.372	-21.0711	351.268	-28.051	399.153	-29.2707	143.5027	45.0343	441.5045	-0.0592	0.0182	-0.0073	-0.0462	0.0165	0.9585
15.3648	22.4338	355.248	32.8232	-120.129	-20.1003	331.1317	-27.9632	416.6618	-29.4893	149.7019	45.2995	460.2331	-0.0592	0.0182	-0.0073	-0.0462	0.0165	0.9585
15.3884	21.6914	334.6507	31.2524	-112.9951	-19.132	311.2504	-27.6977	434.2399	-29.6784	155.889	45.4767	478.8416	-0.0592	0.0182	-0.0073	-0.0462	0.0165	0.9585
15.4121	20.9896	313.6232	29.579	-105.7617	-18.0608	291.0889	-27.3249	452.4808	-29.9087	162.2833	45.6694	497.9562	-0.0592	0.0182	-0.0073	-0.0462	0.0165	0.9585
15.4357	20.394	291.4969	27.694	-98.1983	-16.7657	270.0389	-26.9144	471.9413	-30.2495	169.0875	45.9737	518.1798	-0.0592	0.0182	-0.0073	-0.0462	0.0165	0.9585
15.4594	19.9265	267.6263	25.4876	-90.0832	-15.1388	247.5158	-26.5349	493.0622	-30.7731	176.4596	46.4817	540.0056	-0.0592	0.0182	-0.0073	-0.0462	0.0165	0.9585
15.483	19.5351	241.5538	22.8816	-81.2601	-13.1242	223.1134	-26.2495	516.1588	-31.5528	184.5124	47.2814	563.7927	-0.0592	0.0182	-0.0073	-0.0462	0.0165	0.9585
15.5066	19.1037	213.1788	19.8671	-71.6922	-10.7486	196.7406	-26.1048	541.4526	-32.653	193.3266	48.4446	589.777	-0.0592	0.0182	-0.0073	-0.0462	0.0165	0.9585
15.5303	18.4731	182.9003	16.5318	-61.5078	-8.1397	168.7509	-26.1059	569.1041	-34.1127	202.9658	50.0039	618.0957	-0.0592	0.0182	-0.0073	-0.0462	0.0165	0.9585
15.5539	17.4751	151.6734	13.0625	-51.0201	-5.5165	139.9941	-26.2131	599.2166	-35.9162	213.4787	51.9222	648.792	-0.0592	0.0182	-0.0073	-0.0462	0.0165	0.9585
15.5776	15.9816	120.8949	9.7144	-40.6888	-3.1458	111.708	-26.3382	631.7699	-37.9847	224.8756	54.0841	681.7492	-0.0592	0.0182	-0.0073	-0.0462	0.0165	0.9585
15.6012	13.95	92.0816	6.7387	-31.0152	-1.2629	85.2385	-26.3458	666.5065	-40.1739	237.0854	56.2892	716.5841	-0.0592	0.0182	-0.0073	-0.0462	0.0165	0.9585
15.6249	11.4501	66.4871	4.3023	-22.4162	0.0065182	61.7081	-26.0826	702.8158	-42.3007	249.909	58.2851	752.554	-0.0592	0.0182	-0.0073	-0.0462	0.0165	0.9585
15.6485	8.6787	44.9112	2.4568	-15.16	0.67885	41.845	-25.4145	739.6589	-44.1931	262.9846	59.8316	788.5124	-0.0592	0.0182	-0.0073	-0.0462	0.0165	0.9585
15.6721	5.9295	27.716	1.1689	-9.3707	0.87813	25.9882	-24.2599	775.5326	-45.7362	275.7738	60.76	822.8972	-0.0592	0.0182	-0.0073	-0.0462	0.0165	0.9585
15.6958	3.5019	14.8878	0.35747	-5.0473	0.77262	14.1375	-22.6268	808.5158	-46.8809	287.5778	60.9992	853.7881	-0.0592	0.0182	-0.0073	-0.0462	0.0165	0.9585
15.7194	1.6008	6.0788	-0.076464	-2.0767	0.51513	5.9856	-20.6301	836.4141	-47.629	297.5914	60.5716	879.0494	-0.0592	0.0182	-0.0073	-0.0462	0.0165	0.9585
15.7431	0.25548	0.65641	-0.23693	-0.24835	0.20552	0.95782	-18.4356	857.0425	-48.0218	305.0084	59.5715	896.5897	-0.0592	0.0182	-0.0073	-0.0462	0.0165	0.9585
15.7667	-0.60995	-2.1881	-0.22254	0.71039	-0.094319	-1.6898	-16.1623	868.7239	-48.1204	309.2069	58.1157	904.8319	-0.0592	0.0182	-0.0073	-0.0462	0.0165	0.9585
15.7904	-1.1017	-3.2737	-0.11322	1.0775	-0.34965	-2.7182	-13.835	870.8692	-47.9779	309.961	56.3004	903.2696	-0.0592	0.0182	-0.0073	-0.0462	0.0165	0.9585
15.814	-1.3285	-3.3207	0.033033	1.0987	-0.54807	-2.7991	-11.4335	864.189	-47.6516	307.5189	54.226	892.682	-0.0592	0.0182	-0.0073	-0.0462	0.0165	0.9585
15.8376	-1.3859	-2.9076	0.1776	0.96954	-0.69138	-2.4711	-8.9491	850.507	-47.1979	302.538	52.0046	874.9439	-0.0592	0.0182	-0.0073	-0.0462	0.0165	0.9585
15.8613	-1.3481	-2.4635	0.29679	0.83598	-0.78635	-2.1418	-6.3947	832.3977	-46.6389	295.9532	49.7231	852.6604	-0.0592	0.0182	-0.0073	-0.0462	0.0165	0.9585
15.8849	-1.2708	-2.2785	0.37441	0.79907	-0.83662	-2.0919	-3.8045	812.7228	-45.9622	288.8076	47.4295	828.7067	-0.0592	0.0182	-0.0073	-0.0462	0.0165	0.9585
15.9086	-1.1853	-2.5215	0.40058	0.91992	-0.83883	-2.4877	-1.2166	794.132	-45.1378	282.0692	45.1335	805.7281	-0.0592	0.0182	-0.0073	-0.0462	0.0165	0.9585
15.9322	-1.0986	-3.2442	0.37038	1.2185	-0.7825	-3.3853	1.3549	778.6378	-44.1582	276.4742	42.8331	785.7306	-0.0592	0.0182	-0.0073	-0.0462	0.0165	0.9585
15.9559	-0.99733	-4.3769	0.28157	1.6696	-0.6544	-4.7143	3.9163	767.3473	-43.0563	272.4279	40.5353	769.8242	-0.0592	0.0182	-0.0073	-0.0462	0.0165	0.9585
15.9795	-0.85169	-5.7014	0.13499	2.19	-0.44214	-6.24	6.4646	760.3897	-41.8964	269.9772	38.2644	758.1636	-0.0592	0.0182	-0.0073	-0.0462	0.0165	0.9585
16.0031	-0.61955	-6.8082	-0.057102	2.6223	-0.14223	-7.5188	8.9829	757.0202	-40.7733	268.849	36.0767	750.0617	-0.0592	0.0182	-0.0073	-0.0462	0.0165	0.9585
16.0268	-0.25273	-7.0489	-0.26903	2.7163	0.23547	-7.8522	11.453	755.8685	-39.7979	268.5406	34.0519	744.2409	-0.0592	0.0182	-0.0073	-0.0462	0.0165	0.9585
16.0504	0.29847	-5.4958	-0.45575	2.1161	0.66166	-6.2434	13.8411	755.2165	-39.0712	268.4196	32.2753	739.101	-0.0592	0.0182	-0.0073	-0.0462	0.0165	0.9585
16.0741	1.072	-0.94167	-0.54742	0.35817	1.0743	-1.3826	16.0929	753.2324	-38.6594	267.8095	30.8215	732.935	-0.0592	0.0182	-0.0073	-0.0462	0.0165	0.9585
16.0977	2.0746	8.038	-0.44217	-3.1033	1.3601	8.2848	18.1765	748.2233	-38.5547	266.088	29.6988	724.1635	-0.0592	0.0182	-0.0073	-0.0462	0.0165	0.9585
16.1214	3.2471	22.9097	-0.0062073	-8.8263	1.3417	24.3704	20.0876	738.8071	-38.6558	262.7528	28.8244	711.4955	-0.0592	0.0182	-0.0073	-0.0462	0.0165	0.9585
16.145	4.3882	44.8765	0.92483	-17.264	0.75391	48.2151	21.7954	723.9164	-38.7928	257.4243	28.0611	693.9424	-0.0592	0.0182	-0.0073	-0.0462	0.0165	0.9585
16.1686	5.0238	74.4383	2.5277	-28.5965	-0.78282	80.4114	23.2032	702.7726	-38.7603	249.8385	27.2655	670.8045	-0.0592	0.0182	-0.0073	-0.0462	0.0165	0.9585
16.1923	4.5713	110.9784	4.9506	-42.5689	-3.6565	120.3537	24.1743	674.9723	-38.3532	239.8783	26.314	641.7449	-0.0592	0.0182	-0.0073	-0.0462	0.0165	0.9585
16.2159	2.8753	152.8034	8.2719	-58.5067	-8.0154	166.2254	24.5928	640.6778	-37.4128	227.6349	25.1223	606.9536	-0.0592	0.0182	-0.0073	-0.0462	0.0165	0.9585
16.2396	0.19497	197.6319	12.3352	-75.5293	-13.5859	215.495	24.4042	600.7565	-35.8681	213.4445	23.6628	567.2688	-0.0592	0.0182	-0.0073	-0.0462	0.0165	0.9585
16.2632	-3.0634	243.5726	16.7023	-92.9287	-19.721	266.0211	23.6464	556.765	-33.7685	197.8682	21.976	524.1456	-0.0592	0.0182	-0.0073	-0.0462	0.0165	0.9585
16.2869	-6.5339	289.3949	20.9749	-110.25	-25.8349	316.3764	22.4352	510.6945	-31.2738	181.6024	20.1643	479.4237	-0.0592	0.0182	-0.0073	-0.0462	0.0165	0.9585
